<svg width="1258" height="1280" xmlns="http://www.w3.org/2000/svg" preserveAspectRatio="xMidYMid meet">

 <g>
  <title>background</title>
  <rect fill="#fffff000" id="canvas_background" height="1282" width="1260" y="-1" x="-1"/>
 </g>
 <g>
  <title>Layer 1</title>
  <g id="svg_1" fill="#000000" transform="translate(0,1280) scale(0.10000000149011612,-0.10000000149011612) ">
   <path fill="#7f0000" id="svg_2" d="m2813,12723c-33,-73 -255,-629 -407,-1019l-67,-171l-452,-8c-249,-4 -555,-11 -680,-14l-228,-6l298,-240c440,-354 686,-568 698,-606c13,-41 -52,-322 -185,-794c-108,-384 -140,-503 -140,-520c0,-27 29,-10 495,295c447,292 680,433 719,433c41,0 275,-141 885,-531c257,-165 301,-191 301,-178c0,51 -77,324 -190,671c-109,333 -180,578 -180,616c0,33 23,53 420,354c430,327 612,476 597,491c-19,19 -177,26 -732,32l-589,7l-93,245c-224,588 -405,1020 -428,1020c-3,0 -22,-35 -42,-77z"/>
   <path fill="#7f0000" id="svg_3" d="m7495,11899c-10,-15 15,-40 235,-233c342,-300 787,-756 1043,-1069c716,-873 1205,-1896 1371,-2867c53,-309 61,-412 61,-780c0,-423 -21,-610 -107,-945c-91,-356 -352,-919 -545,-1176l-72,-96l-114,116c-272,279 -1975,2112 -2342,2521c-355,396 -479,558 -462,604c8,19 121,115 912,775c385,321 700,585 700,587c0,7 -398,436 -527,570l-137,141l-183,-91c-434,-215 -778,-318 -1013,-301c-110,7 -350,38 -504,65l-113,19l-152,-123c-465,-379 -2955,-2439 -2955,-2446c-1,-4 1165,-1460 1184,-1478c6,-7 37,17 420,332c318,260 606,483 804,621l84,59l166,-170c930,-953 1653,-1727 2569,-2754l120,-135l-56,-26c-208,-97 -525,-172 -845,-200c-194,-17 -650,-6 -847,21c-597,80 -1195,274 -1681,545c-238,133 -486,318 -894,669c-238,204 -374,313 -441,352l-43,25l-163,-132c-327,-267 -852,-700 -1203,-993c-288,-240 -1725,-1447 -1758,-1476c-21,-19 125,-260 288,-475c121,-160 414,-512 846,-1017l57,-66l179,130c470,345 723,548 1623,1303c325,272 594,495 598,495c4,0 63,-44 132,-97c551,-426 793,-584 1195,-783c1058,-523 2192,-654 3288,-380c290,73 506,152 918,336c141,63 261,114 266,114c11,0 131,-130 598,-650c555,-617 960,-1053 1167,-1257l83,-82l185,161c537,465 1100,993 1140,1068c7,12 -29,57 -157,196c-332,358 -656,717 -984,1089c-535,608 -509,576 -509,605c0,62 59,191 223,490c353,644 546,1273 619,2025c19,195 16,779 -5,985c-132,1278 -639,2449 -1501,3465c-411,484 -1016,977 -1631,1331c-279,160 -610,313 -940,434c-156,57 -182,64 -190,49z"/>
  </g>
 </g>
</svg>